<?xml version="1.0" standalone="no"?><!DOCTYPE svg PUBLIC "-//W3C//DTD SVG 1.1//EN" "http://www.w3.org/Graphics/SVG/1.1/DTD/svg11.dtd"><svg class="icon" width="200px" height="200.00px" viewBox="0 0 1024 1024" version="1.1" xmlns="http://www.w3.org/2000/svg"><path d="M292.2723552 91.3408L439.81937813 238.93333333h144.31573334l147.59253333-147.54702186a45.51111147 45.51111147 0 0 1 64.39822187 64.39822186L712.8860448 238.93333333H807.82222187A159.28888853 159.28888853 0 0 1 967.11111147 398.22222187v364.0888896a159.28888853 159.28888853 0 0 1-159.2888896 159.28888853h-591.64444374A159.28888853 159.28888853 0 0 1 56.88888853 762.31111147v-364.0888896A159.28888853 159.28888853 0 0 1 216.17777813 238.93333333h94.89066667L227.87413333 155.69351147a45.51111147 45.51111147 0 0 1 64.39822187-64.39822294zM807.82222187 329.9555552h-591.64444374a68.26666667 68.26666667 0 0 0-67.9480896 61.71306667L147.91111147 398.22222187v364.0888896a68.26666667 68.26666667 0 0 0 61.71306666 67.94808853L216.17777813 830.57777813h591.64444374a68.26666667 68.26666667 0 0 0 67.9480896-61.71306666L876.08888853 762.31111147v-364.0888896A68.26666667 68.26666667 0 0 0 807.82222187 329.9555552zM329.9555552 466.48888853a45.51111147 45.51111147 0 0 1 45.51111147 45.51111147v91.02222187a45.51111147 45.51111147 0 0 1-91.02222187 0v-91.02222187a45.51111147 45.51111147 0 0 1 45.5111104-45.51111147z m364.0888896 0a45.51111147 45.51111147 0 0 1 45.5111104 45.51111147v91.02222187a45.51111147 45.51111147 0 0 1-91.02222187 0v-91.02222187a45.51111147 45.51111147 0 0 1 45.51111147-45.51111147z" fill="#1296db" /></svg>